PathFileType	4	(X/Y/Z)	32_2_27_p1_0-258.trc
DataRate	CameraRate	NumFrames	NumMarkers	Units	OrigDataRate	OrigDataStartFrame	OrigNumFrames
60.0	60.0	6	27	m	60.0	129	259
Frame#	Time	RHip			RKnee			RAnkle			RBigToe			RSmallToe			RHeel			LHip			LKnee			LAnkle			LBigToe			LSmallToe			LHeel			Neck			Head			Nose			RShoulder			RElbow			RWrist			RThumb			RIndex			RPinky			LShoulder			LElbow			LWrist			LThumb			LIndex			LPinky			
		X1	Y1	Z1	X2	Y2	Z2	X3	Y3	Z3	X4	Y4	Z4	X5	Y5	Z5	X6	Y6	Z6	X7	Y7	Z7	X8	Y8	Z8	X9	Y9	Z9	X10	Y10	Z10	X11	Y11	Z11	X12	Y12	Z12	X13	Y13	Z13	X14	Y14	Z14	X15	Y15	Z15	X16	Y16	Z16	X17	Y17	Z17	X18	Y18	Z18	X19	Y19	Z19	X20	Y20	Z20	X21	Y21	Z21	X22	Y22	Z22	X23	Y23	Z23	X24	Y24	Z24	X25	Y25	Z25	X26	Y26	Z26	X27	Y27	Z27	
129	2.15	0.33912374607842405	0.41274342359380983	1.0736242070851696	0.32176875091342516	0.43767526162461867	1.5051087518764663	0.3145047530585931	0.46537684994991957	1.9007000855587448	0.32070463345616423	0.3107530358393466	1.9091712238947733	0.37835811526351915	0.329833940576972	1.912830960312903	0.2999864460012637	0.551977869539272	1.9991031490553008	0.16775485817699567	0.4315387897746699	1.0680149197007587	0.17361797567417267	0.44531462908787256	1.5090532730685307	0.13919180547898097	0.5058760114543013	1.9439634062703472	0.15473947725626602	0.3027444146416079	1.90397096547148	0.10644667328517339	0.3370208774562893	1.9170672022241595	0.15454588637015682	0.5284693248261951	1.990045622909432	0.25878683280360254	0.45906180182476924	0.5164431450791763	0.2975259759359862	0.47149503632030376	0.3224843960539847	0.27215498525516163	0.411014406836523	0.4182434300069817	0.38505175172558276	0.46090149777089995	0.5931981612094848	0.5164114371550844	0.3402819538385453	0.5799457836635873	0.4109446724239338	0.38094283334685997	0.4188164568241965	0.32938860445322915	0.42602408945178943	0.3610637782893303	0.31478954567818235	0.4190953198805948	0.3505960207675592	0.360342867971809	0.45334540140352014	0.37700554679147524	0.10665473196799352	0.4920688981292459	0.607271499986251	-0.005607996171992003	0.45694094123342377	0.833312932986093	0.15652997036558255	0.32371318967766183	0.9164800454452391	0.285996131165193	0.2936260935944644	0.8845768968649527	0.2963062585917621	0.3152154169706265	0.9346244549278011	0.24027377133347935	0.3129127117327033	1.0140074881141536
130	2.1666666666666665	0.33911274844835043	0.412758918795358	1.0736137558926155	0.3217608953324784	0.4377652207717096	1.5050951430913442	0.32328934711800894	0.45299582363202817	1.892078643544603	0.31749619406070106	0.29963413840889125	1.9019148982029164	0.37838880659672575	0.3297798978875198	1.91276035906489	0.30455549030894213	0.5357989668292705	1.988262571624395	0.16767980936582297	0.4314333457698484	1.067883392505277	0.17359514920742697	0.4452581368041249	1.5093067598190006	0.14332603178279937	0.49204333306816184	1.9391922711518332	0.15480023399937018	0.3024980954784855	1.9039014524363032	0.11008218098772941	0.326228662606759	1.9080754166581726	0.15456333413691858	0.5286578025363802	1.9900687257507772	0.2588593490048676	0.4592264350362337	0.5164902576836609	0.29759710529441463	0.47148776617393856	0.32236636967068905	0.2718929036129761	0.41092260900860245	0.41870973327304445	0.3890549512804898	0.46321330566813	0.5935362745242239	0.5159278387981435	0.33978078089928615	0.5765178035049602	0.41053060477995557	0.3803961181404654	0.415498625652883	0.3292060886096988	0.4260210265029561	0.35708653528693224	0.3199462147763038	0.42378282685884816	0.3490334706988789	0.34563744408489844	0.4427199934741319	0.3718653316873245	0.1092012521781096	0.5035806293638944	0.6091715476891366	-0.005592252285463949	0.4568823293973178	0.8331906421979246	0.15652706786315176	0.3237428192845832	0.9165360649364866	0.2860464289699999	0.2937561238084842	0.8846891645084517	0.2963751709041465	0.3152335104702296	0.9345461399618026	0.24027916826504084	0.3131239563277611	1.013886961115818
131	2.183333333333333	0.3433856438083012	0.3996322650273693	1.0687734614009439	0.3218358403191321	0.43774698648763244	1.505191536398099	0.31884001300225695	0.45066047324224884	1.890913515269628	0.320692247256967	0.3107862796326085	1.9092544965403313	0.3783971327073417	0.3298498188814166	1.9127999322255018	0.30112237567499917	0.5228946667429544	1.979999829825279	0.16772289263008958	0.4315289321801215	1.0679994516889566	0.17360866297979072	0.44525877186089863	1.509291196731814	0.1432990681073224	0.49204269456993266	1.9391375453435098	0.15480297288569117	0.30242364514281633	1.9037902485842124	0.11011246871670355	0.3261158436754235	1.9079471389478475	0.1545004114934909	0.5287815857119988	1.9900372150563146	0.2588395634861523	0.4592939356566184	0.5162498723763266	0.2973860447570506	0.4716834827650634	0.32200543498801254	0.2722050824605095	0.4114081309548729	0.4185591575355603	0.3850447665804707	0.4611779236608327	0.5930477559384204	0.5159049406208127	0.33976094159216036	0.5765596281146427	0.40653463654986316	0.37908358931778113	0.41208125172893445	0.32910256983452907	0.42609565799516635	0.35685923694843064	0.31929192283771773	0.42343095208253195	0.34942246022211815	0.341252234418544	0.4320542112664253	0.371278585802338	0.1092729831666245	0.5037060469026438	0.609275678156937	-0.0055550300799430625	0.45687485449050064	0.8332801345395437	0.16060233441242178	0.326357910383452	0.9171913387606955	0.28327247436239017	0.28501481427833497	0.8820304365348205	0.2964337634496171	0.3150693781281171	0.9343923783176571	0.24032507460447236	0.31328182782557024	1.0137569847518495
132	2.2	0.343446284648203	0.3996746298654794	1.0685498592312652	0.32185818645734265	0.43762605275295147	1.5050658114130169	0.3155899795519725	0.45542269397008966	1.8940168031565503	0.3175210460802188	0.2998912880340341	1.9017790099838647	0.3784519216849544	0.32993806369598716	1.912720902157333	0.29737636311368926	0.5402267092894523	1.9962534522115345	0.16710617289051502	0.43032990028624163	1.0626557516937387	0.1778892124977408	0.4303517141478063	1.496798247878796	0.14729013253253861	0.4962165415598777	1.9367728284402947	0.15474852550766585	0.3024820381964479	1.9036598506880358	0.11686263738886271	0.33957510329881674	1.9163843573481314	0.15460521768195018	0.5289258021064651	1.9901620879893271	0.2593111004080522	0.46006845330457646	0.5195000476444552	0.29761956976775256	0.4710442940877209	0.3252717305484888	0.27601510454240086	0.41240755792770706	0.41868985562395844	0.3889711509653796	0.4629472651925007	0.5932818670586623	0.5158341219461989	0.3396704114617786	0.576441106314378	0.40327243486995623	0.3910828137999797	0.4133510264723429	0.33570118984378444	0.4475469277387701	0.35828659302000065	0.3221776995670662	0.4346849273394015	0.3506838413733297	0.3594769030280252	0.45273806538532996	0.37184442434864323	0.10939481711241299	0.5037992868208492	0.6094403682942546	-0.00030926106425747295	0.4447054969245549	0.8299260647662874	0.1607424358311788	0.32607767063816523	0.917245586310986	0.28329674381409164	0.28473232625551337	0.8816907028319831	0.30041987219168625	0.3029712336777612	0.9298179924091347	0.24351549464522682	0.31405389595546274	1.0102222123496356
133	2.216666666666667	0.34348096498578606	0.3996358677897065	1.0686128313779855	0.32187749439822244	0.4375948732362575	1.5052667083559368	0.3190222794659697	0.4676318100233303	1.9017559091511345	0.3132864363835631	0.3135821437220071	1.9117134343519617	0.37844308365494805	0.32997663216997686	1.9129759768381518	0.3009065876891232	0.5538748196463736	2.005113361895566	0.16780848650867822	0.43134231225561553	1.0672897186225379	0.17789844205178504	0.43026887322551816	1.4966734363680079	0.1472885333088118	0.496243643524932	1.9367495454092367	0.1547896030199854	0.30254515076943184	1.9036684181701018	0.11687293019627101	0.3396393291624524	1.9164147304006756	0.15463490527534896	0.5289885231598597	1.9901697519618076	0.26242987741405105	0.4700822208901072	0.5209410343710952	0.2979000881468674	0.4718992278049424	0.3252222372150634	0.27621751584112875	0.41267653512352465	0.4183238988248425	0.38912723234325985	0.4632573989463851	0.5934191798712781	0.5149953142797157	0.33996715401363514	0.5700520104948721	0.4032687066482405	0.39151362995997613	0.41294242406012416	0.3322681345239712	0.43741036811208245	0.36103769655888146	0.3190238676134517	0.4243424716185907	0.35326791710332567	0.3421725034919203	0.43331411290198585	0.37751319661392707	0.10941721184873307	0.5040458526746665	0.6096091642650676	-0.00028493820684117216	0.44481093943105127	0.830042417518733	0.16082957514089283	0.3260438180496965	0.9172635523489017	0.28332190785692113	0.2845856608565069	0.881487145286637	0.3005476823116255	0.3028848089912641	0.9296391894432608	0.2435484619699244	0.3140018186840918	1.0101590710632247
134	2.2333333333333334	0.34724217599191265	0.41058877138371164	1.0723629593446842	0.3217814717682679	0.4377368250988907	1.5051706195845165	0.31552936450900393	0.4556939303786432	1.894344613973294	0.3132628379280114	0.31372365505050226	1.9113942382899343	0.3783831868774982	0.32999506051507754	1.9127302594816675	0.2974379598302129	0.5408316161644579	1.9965990756306622	0.16720772990580246	0.4310145123945591	1.0714590130230182	0.17789983177526947	0.43012572444818786	1.4968487607698633	0.14731203827030728	0.4962843804920112	1.9367819152951897	0.15483591700320062	0.30263697789220356	1.9034746750328178	0.1128562309693233	0.3525380288319361	1.9215573335502585	0.15467833389892954	0.5293847775793069	1.990289472977841	0.26244585390623765	0.47003171183381853	0.521093285952928	0.30484969461465566	0.48503902948004146	0.32325616912844807	0.27624603320456564	0.4127795420003558	0.41832651066667786	0.3891631908671809	0.46320649341206527	0.5935317702797721	0.514948697817974	0.3400600650989447	0.5700029438645654	0.40699820270554565	0.3801198194590838	0.4139927996643615	0.32647007763814917	0.41761412216208493	0.36590804477431604	0.323483942858198	0.447944235933418	0.3529069373402507	0.3460891615810634	0.4423851921472005	0.3750580394088397	0.10952094157206385	0.5038665659901599	0.6094173745059276	-0.00018618561778772357	0.44468089728051646	0.8300650960344368	0.1608671579187519	0.3263765385791931	0.9172397073409401	0.28347296465935246	0.2847904223756316	0.8817588181680094	0.3041640299460257	0.31124426202831035	0.9357447920284387	0.24413852747487325	0.315120455385888	1.014276384061676
